<?xml version="1.0" encoding="UTF-8"?>
<svg style="enable-background:new 0 0 40 60" version="1.1" viewBox="0 0 40 60" xml:space="preserve" xmlns="http://www.w3.org/2000/svg"><style type="text/css">
	.st0{fill:#FFFFFF;}
</style><g><g><polygon class="st0" points="31.8 41.4 17.3 41.4 17.3 54.7 15.4 54.7 15.4 56.2 33.7 56.2 33.7 54.7 31.8 54.7"/><path class="st0" d="m17.3 40.1h14.5v-5.5c0-3.9-10.9-11.1-12.3-12-.1 0-.1-.1-.2-.1-1.1-.7-2.5-1.2-3.9-1.2-4 0-7.2 3.2-7.2 7.2 0 3.6 2.6 6.5 6 7.1.1 0 .2.1.4.1h.1.1c2.5.2 2.5 4.4 2.5 4.4z"/><path class="st0" d="m37.3 5.5c-2.2-2.1-5.7-2-7.8.2l-13.5 14.2c1.4.1 2.8.6 4.1 1.4l.2.1c1.4.9 3.6 2.4 5.7 4.1l11.5-12.2c2.1-2.2 2-5.7-.2-7.8z"/><path class="st0" d="m3.2 9.8l-2.1 2.2 4.1 4.1 2.5-2.5c-2.1-.2-3.9-1.7-4.5-3.8z"/><path class="st0" d="m28.3 4.9h-20.2c-2 0-3.7 1.6-3.7 3.7s1.6 3.7 3.7 3.7h13.2l7-7.4z"/></g></g></svg>
